<?xml version="1.0"?>
<svg xmlns="http://www.w3.org/2000/svg" viewBox="0 0 512 512" width="512" height="512"><g id="Filled_outline" data-name="Filled outline"><path d="M232,304l-48,24L168,432l-40,8,13.97-125.75a32.023,32.023,0,0,1,18.81-25.71l.54-.24L216,264Z" style="fill:#fec9a3"/><polygon points="232 304 184 328 161.32 288.3 216 264 232 304" style="fill:#f35244"/><path d="M317.4,280H240l40,128-32,8L197.43,278.74A34.731,34.731,0,0,1,230.02,232H352A36.472,36.472,0,0,1,317.4,280Z" style="fill:#fec9a3"/><path d="M440,179.84V272H400V256l-8,8-8-8,16-32V176l-24-24H325.33L352,232H264l-10.75-37.61L248,176l-24-16H200l-14.44,43.33a24.038,24.038,0,0,1-4.83,8.35L120,280,88,256l14-16H88l8-16h20l28-32,23.95-59.88A32.01,32.01,0,0,1,197.67,112H375.44a36.01,36.01,0,0,1,27.34,12.57l29.52,34.44A32.013,32.013,0,0,1,440,179.84Z" style="fill:#fec9a3"/><path d="M440,179.84V272H400V256l-8,8-8-8,16-32V176l-24-24H325.33L352,232H264l-10.75-37.61A463.415,463.415,0,0,0,315.95,112h59.49a36.01,36.01,0,0,1,27.34,12.57l29.52,34.44A32.013,32.013,0,0,1,440,179.84Z" style="fill:#fec093"/><path d="M280,112H240V56h64V88A24,24,0,0,1,280,112Z" style="fill:#fec9a3"/><path d="M304,56H264L240,72V40a16,16,0,0,1,16-16h48a16,16,0,0,1,16,16h0A16,16,0,0,1,304,56Z" style="fill:#ffb531"/><path d="M317.4,280H240V232H352A36.472,36.472,0,0,1,317.4,280Z" style="fill:#f35244"/><path d="M456,383.62a35.912,35.912,0,0,1-16.44,30.03,184.657,184.657,0,0,1-67.99,26.97l-245.44,44.4A186.039,186.039,0,0,1,92.94,488c-.83,0-1.66-.01-2.49-.02a186.32,186.32,0,0,1-37.67-4.36,36.46,36.46,0,0,1-28.16-28.66,35.054,35.054,0,0,1-.62-6.58,35.912,35.912,0,0,1,16.44-30.03,184.657,184.657,0,0,1,67.99-26.97l172.26-31.16,73.18-13.24a186.31,186.31,0,0,1,73.35,1.4,36.46,36.46,0,0,1,28.16,28.66A35.054,35.054,0,0,1,456,383.62Z" style="fill:#60d1e0"/><path d="M456,383.62a35.912,35.912,0,0,1-16.44,30.03,184.657,184.657,0,0,1-67.99,26.97l-245.44,44.4A186.039,186.039,0,0,1,92.94,488c-.83,0-1.66-.01-2.49-.02,68.25-25.63,135.08-66.45,190.24-127.76l73.18-13.24a186.31,186.31,0,0,1,73.35,1.4,36.46,36.46,0,0,1,28.16,28.66A35.054,35.054,0,0,1,456,383.62Z" style="fill:#5ac6d4"/><path d="M488,384A104,104,0,0,1,384,488H104a108.068,108.068,0,0,1,69.57-49.97L349.4,399.57a50.079,50.079,0,0,0,19.41-88.94c-5-3.76-8.81-6.63-8.81-6.63h48A80,80,0,0,1,488,384Z" style="fill:#348fd9"/><path d="M408,296H360a8,8,0,0,0-4.813,14.39l8.81,6.631a42.1,42.1,0,0,1,14.193,19.184,194.559,194.559,0,0,0-25.744,2.9L271.43,353.764,250.881,288H317.4a44.56,44.56,0,0,0,44.5-45.522,44.933,44.933,0,0,0-2.313-13.008L336.433,160h36.253L392,179.313v42.8l-15.155,30.311a8,8,0,0,0,1.5,9.235l8,8A7.976,7.976,0,0,0,392,272a8,8,0,0,0,8,8h40a8,8,0,0,0,8-8V179.838a40.026,40.026,0,0,0-9.629-26.031L408.85,119.365A43.952,43.952,0,0,0,375.442,104H307.7A31.8,31.8,0,0,0,312,88V62.624A24,24,0,0,0,304,16H256a24.027,24.027,0,0,0-24,24v64H197.665a39.808,39.808,0,0,0-37.139,25.145L137.08,187.76,112.37,216H96a8,8,0,0,0-7.155,4.422l-8,16a8,8,0,0,0,4.067,10.958l-2.933,3.352A8,8,0,0,0,83.2,262.4l32,24a8,8,0,0,0,10.779-1.086L186.705,217a31.806,31.806,0,0,0,6.442-11.142L205.766,168h15.812l19.538,13.025,8.335,29.173,15.384-4.4-9.143-32a8,8,0,0,0-3.254-4.458l-24-16A8,8,0,0,0,224,152H200a8,8,0,0,0-7.589,5.47L177.968,200.8a15.9,15.9,0,0,1-3.22,5.57l-55.837,62.817L99.7,254.776l8.32-9.508A8,8,0,0,0,102,232h14a8,8,0,0,0,6.021-2.732l28-32a8,8,0,0,0,1.407-2.3l23.953-59.884A23.887,23.887,0,0,1,197.665,120H375.442a27.965,27.965,0,0,1,21.259,9.777l29.521,34.442A24.012,24.012,0,0,1,432,179.838V264H408v-8a8,8,0,0,0-11.445-7.221l10.6-21.2A7.994,7.994,0,0,0,408,224V176a8,8,0,0,0-2.343-5.657l-24-24A8,8,0,0,0,376,144H325.333a8,8,0,0,0-7.589,10.53L340.9,224H230.02a42.727,42.727,0,0,0-42.73,42.74c0,.414.016.831.028,1.248l-29.248,13-.011.006-.53.235a40.164,40.164,0,0,0-23.51,32.136l-7.4,66.593-19.61,3.548a191.594,191.594,0,0,0-70.939,28.142A43.8,43.8,0,0,0,16,448.38a43.089,43.089,0,0,0,.759,8.062,44.406,44.406,0,0,0,34.3,34.99,194.954,194.954,0,0,0,28.39,4.1l1.112-15.961a178.9,178.9,0,0,1-26.051-3.761A28.433,28.433,0,0,1,32.479,453.46,27.1,27.1,0,0,1,32,448.38a27.851,27.851,0,0,1,12.808-23.328,175.685,175.685,0,0,1,65.046-25.8l245.443-44.4a178.358,178.358,0,0,1,25.434-2.729c-.043,1.245-.121,2.493-.277,3.742a42.144,42.144,0,0,1-32.76,35.887L171.86,430.216a116.518,116.518,0,0,0-74.72,53.668A8,8,0,0,0,104,496H384A112.127,112.127,0,0,0,496,384,88.1,88.1,0,0,0,408,296ZM248,40a8.009,8.009,0,0,1,8-8h48a8,8,0,0,1,0,16H264a8,8,0,0,0-4.438,1.344L248,57.052V40Zm0,64V76.281L266.422,64H296V88a16.019,16.019,0,0,1-16,16Zm97.667,136A28.5,28.5,0,0,1,317.4,272H248V240ZM206.515,254a26.7,26.7,0,0,1,23.505-14H232v40c0,.106.012.21.016.315s.008.228.017.342c.018.213.046.421.08.628.012.077.02.154.035.231a7.7,7.7,0,0,0,.229.909l23.187,74.209-19.6,3.546-31.027-84.2A26.751,26.751,0,0,1,206.515,254Zm-15.238,79.307,14.975-7.485,13.725,37.249-34.235,6.193Zm9.41-22.591-13.5,6.744-14.536-25.444,18.165-8.075Zm-50.766,4.421a24.105,24.105,0,0,1,8.5-15.779l17.244,30.186-6.577,42.732-26.044,4.712ZM384,480H328.16q7.528-1.659,15.189-3.059a236.973,236.973,0,0,0,47.481-13.559l-6.07-14.805A224.091,224.091,0,0,1,340.493,461.2a410.666,410.666,0,0,0-56.365,14.324L270.7,480H201.56a62.506,62.506,0,0,1,28.317-14.165l128.075-27.19a90.66,90.66,0,0,0,57.28-40.53l-13.59-8.445A74.546,74.546,0,0,1,354.58,423L226.554,450.185A78.322,78.322,0,0,0,179.874,480H119.426a100.511,100.511,0,0,1,55.853-34.153l175.834-38.463A58.07,58.07,0,0,0,382.044,312H408a72.081,72.081,0,0,1,72,72A96.108,96.108,0,0,1,384,480Z"/><path d="M428.084,361.819l-15.877-1.984a73.838,73.838,0,0,1-4.678,18.185l14.861,5.927A89.826,89.826,0,0,0,428.084,361.819Z"/><path d="M447.412,376.359c-2.38,28.033-19.013,50.276-49.437,66.11l7.387,14.193c35.607-18.532,55.118-45.095,57.992-78.949Z"/></g></svg>
