<?xml version="1.0" encoding="iso-8859-1"?>
<!-- Generator: Adobe Illustrator 19.0.0, SVG Export Plug-In . SVG Version: 6.00 Build 0)  -->
<svg version="1.1" id="Capa_1" xmlns="http://www.w3.org/2000/svg" xmlns:xlink="http://www.w3.org/1999/xlink" x="0px" y="0px"
	 viewBox="0 0 512 512" style="enable-background:new 0 0 512 512;" xml:space="preserve">
<path style="fill:#FFFFFF;" d="M282.713,461.938h99.784c1.049-0.281,2.118-0.567,3.22-0.863
	c6.885-62.144,2.432-127.445-15.036-192.634c-24.028-89.673-69.488-167.218-128.348-227.442c-9.687-9.912-26.408-5.431-29.842,7.996
	c-20.862,81.585-21.459,171.471,2.569,261.145C229.983,365.834,253.179,416.845,282.713,461.938z"/>
<path style="fill:#F07299;" d="M282.713,461.938h99.784c1.049-0.281,2.118-0.567,3.22-0.863
	c6.885-62.144,2.432-127.445-15.036-192.634c-24.028-89.673-69.488-167.218-128.348-227.442c-9.687-9.912-26.408-5.431-29.842,7.996
	c-20.862,81.585-21.459,171.471,2.569,261.145C229.983,365.834,253.179,416.845,282.713,461.938z"/>
<path style="fill:#B6F1FF;" d="M197.039,183.744c0.707,36.096,5.206,72.831,13.812,109.622l98.32,56.766l56.766-98.32
	c-10.943-36.165-25.414-70.228-42.85-101.842l-46.137,79.911L197.039,183.744z"/>
<g>
	<path style="fill:#FFC66C;" d="M405.979,19.065c6.792-12.081,24.103-12.081,30.895,0c41.267,73.406,65.108,160.074,65.108,252.911
		c0,67.489-12.6,131.718-35.334,189.963c-44.101,0-46.343,0-90.442,0c-22.734-58.244-35.334-122.473-35.334-189.962
		C340.87,179.14,364.711,92.471,405.979,19.065z"/>
	<path style="fill:#FFC66C;" d="M87.501,118.499c-17.121,0-31-13.879-31-31s13.879-31,31-31s31,13.879,31,31
		S104.622,118.499,87.501,118.499z"/>
</g>
<path d="M87.501,128.499c-22.607,0-41-18.393-41-41s18.393-41,41-41s41,18.393,41,41S110.109,128.499,87.501,128.499z
	 M87.501,66.499c-11.58,0-21,9.42-21,21s9.42,21,21,21s21-9.42,21-21S99.081,66.499,87.501,66.499z"/>
<path d="M165.001,97.499h-14c-5.523,0-10-4.477-10-10c0-5.523,4.477-10,10-10h14c5.523,0,10,4.477,10,10
	C175.001,93.022,170.524,97.499,165.001,97.499z"/>
<path d="M24.002,97.499h-14c-5.523,0-10-4.477-10-10c0-5.523,4.477-10,10-10h14c5.523,0,10,4.477,10,10
	C34.002,93.022,29.525,97.499,24.002,97.499z"/>
<path d="M87.501,174.999c-5.523,0-10-4.477-10-10v-14c0-5.523,4.477-10,10-10c5.523,0,10,4.477,10,10v14
	C97.501,170.522,93.024,174.999,87.501,174.999z"/>
<path d="M87.501,34c-5.523,0-10-4.477-10-10V10c0-5.523,4.477-10,10-10c5.523,0,10,4.477,10,10v14
	C97.501,29.523,93.024,34,87.501,34z"/>
<path d="M142.302,152.3c-2.559,0-5.119-0.976-7.071-2.929l-9.899-9.899c-3.905-3.905-3.905-10.237,0-14.143
	c3.905-3.906,10.237-3.905,14.143,0l9.899,9.899c3.905,3.905,3.905,10.237,0,14.143C147.421,151.324,144.861,152.3,142.302,152.3z"
	/>
<path d="M42.601,52.599c-2.559,0-5.119-0.976-7.071-2.929l-9.899-9.899c-3.905-3.905-3.905-10.237,0-14.143s10.237-3.905,14.143,0
	l9.899,9.899c3.905,3.905,3.905,10.237,0,14.143C47.719,51.623,45.16,52.599,42.601,52.599z"/>
<path d="M32.701,152.3c-2.559,0-5.119-0.976-7.071-2.929c-3.905-3.905-3.905-10.237,0-14.143l9.899-9.899
	c3.905-3.905,10.237-3.905,14.143,0c3.906,3.905,3.905,10.237,0,14.143l-9.899,9.899C37.82,151.324,35.26,152.3,32.701,152.3z"/>
<path d="M132.403,52.599c-2.559,0-5.119-0.976-7.071-2.929c-3.905-3.905-3.905-10.237,0-14.143l9.899-9.899
	c3.905-3.905,10.237-3.905,14.143,0s3.905,10.237,0,14.143l-9.899,9.899C137.521,51.623,134.962,52.599,132.403,52.599z"/>
<path d="M75.151,471.94c-2.63,0-5.2-1.069-7.07-2.93c-1.86-1.86-2.93-4.44-2.93-7.07s1.07-5.21,2.93-7.069
	c1.87-1.86,4.44-2.931,7.07-2.931c2.64,0,5.21,1.07,7.08,2.931c1.86,1.859,2.93,4.439,2.93,7.069s-1.07,5.2-2.93,7.07
	C80.361,470.871,77.791,471.94,75.151,471.94z"/>
<path d="M138.991,512c-2.64,0-5.21-1.07-7.07-2.931c-1.86-1.859-2.93-4.439-2.93-7.069c0-2.63,1.07-5.21,2.93-7.07
	c1.86-1.86,4.44-2.93,7.07-2.93c2.63,0,5.21,1.069,7.07,2.93c1.86,1.86,2.93,4.44,2.93,7.07c0,2.63-1.07,5.21-2.93,7.069
	C144.201,510.93,141.621,512,138.991,512z"/>
<path d="M226.85,502.33c-2.64,0-5.21-1.061-7.07-2.931c-1.87-1.859-2.93-4.439-2.93-7.069s1.06-5.21,2.93-7.07
	c1.86-1.86,4.43-2.93,7.07-2.93c2.63,0,5.21,1.069,7.07,2.93c1.86,1.861,2.93,4.44,2.93,7.07s-1.07,5.21-2.93,7.069
	C232.06,501.27,229.48,502.33,226.85,502.33z"/>
<path d="M402.559,502.33c-2.63,0-5.2-1.061-7.07-2.931c-1.86-1.859-2.93-4.439-2.93-7.069s1.07-5.21,2.93-7.07
	c1.86-1.86,4.44-2.93,7.07-2.93c2.64,0,5.21,1.069,7.07,2.93c1.87,1.86,2.93,4.44,2.93,7.07c0,2.64-1.06,5.21-2.93,7.069
	C407.769,501.27,405.199,502.33,402.559,502.33z"/>
<path d="M314.7,512c-2.63,0-5.21-1.07-7.07-2.931c-1.86-1.859-2.92-4.439-2.92-7.069c0-2.63,1.06-5.21,2.92-7.07
	c1.87-1.86,4.44-2.93,7.07-2.93c2.64,0,5.21,1.069,7.08,2.93c1.86,1.86,2.93,4.44,2.93,7.07c0,2.63-1.07,5.21-2.93,7.069
	C319.91,510.93,317.34,512,314.7,512z"/>
<path d="M486.988,512c-2.63,0-5.21-1.07-7.07-2.931c-1.86-1.859-2.93-4.439-2.93-7.069c0-2.63,1.07-5.21,2.93-7.07
	c1.86-1.86,4.44-2.93,7.07-2.93c2.63,0,5.21,1.069,7.07,2.93c1.86,1.86,2.93,4.44,2.93,7.07c0,2.63-1.07,5.21-2.93,7.069
	C492.198,510.93,489.618,512,486.988,512z"/>
<path d="M421.426,471.938c-5.523,0-10-4.478-10-10v-310.94c0-5.523,4.477-10,10-10c5.523,0,10,4.477,10,10v310.94
	C431.426,467.46,426.949,471.938,421.426,471.938z"/>
<path d="M421.429,114.783c-2.64,0-5.21-1.07-7.07-2.93c-1.87-1.86-2.93-4.44-2.93-7.07c0-2.64,1.06-5.21,2.93-7.08
	c1.85-1.86,4.43-2.92,7.07-2.92c2.63,0,5.21,1.06,7.07,2.92c1.86,1.87,2.93,4.44,2.93,7.08c0,2.63-1.07,5.21-2.93,7.07
	C426.639,113.713,424.059,114.783,421.429,114.783z"/>
<path d="M501.998,451.938h-20.94c20.521-57.232,30.923-117.697,30.923-179.963c0-91.401-22.958-180.551-66.39-257.811
	c-4.985-8.867-14.018-14.161-24.165-14.161c-10.147,0-19.18,5.293-24.164,14.161c-26.054,46.344-44.73,96.969-55.512,149.789
	c-24.107-48.265-55.059-91.874-92.266-129.944c-7.11-7.274-17.206-10.05-27.006-7.424s-17.156,10.078-19.676,19.932
	c-11.346,44.372-16.573,90.396-15.726,136.697c-0.013,0.241-0.039,0.48-0.034,0.724c0.567,28.968,3.557,58.089,8.886,86.877
	c0.039,0.213,0.079,0.426,0.119,0.638c0.463,2.486,0.944,4.969,1.442,7.45c0.06,0.299,0.119,0.599,0.179,0.898
	c0.534,2.633,1.083,5.263,1.656,7.89c0.01,0.047,0.02,0.095,0.03,0.142c0.569,2.606,1.153,5.209,1.76,7.808
	c0.008,0.036,0.022,0.07,0.031,0.106c1.326,5.673,2.743,11.333,4.255,16.978c13.262,49.493,33.165,96.231,59.217,139.211H128.001
	c-5.523,0-10,4.478-10,10c0,5.522,4.477,10,10,10h154.705c0.005,0,0.011,0.001,0.016,0.001s0.009-0.001,0.014-0.001h93.468h90.442
	h35.352c5.523,0,10-4.478,10-10C511.998,456.414,507.521,451.938,501.998,451.938z M330.87,271.976
	c0,6.798,0.13,13.573,0.378,20.326c-0.441,0.497-0.839,1.047-1.184,1.645l-24.552,42.525l-85.866-49.575
	c-0.124-0.549-0.251-1.098-0.373-1.647c-0.463-2.086-0.906-4.175-1.343-6.265c-0.236-1.13-0.483-2.258-0.711-3.388
	c-0.58-2.869-1.13-5.742-1.661-8.618c-0.288-1.559-0.557-3.12-0.83-4.68c-0.267-1.522-0.53-3.045-0.783-4.569
	c-0.287-1.732-0.569-3.465-0.838-5.198c-0.197-1.265-0.382-2.532-0.57-3.798c-1.001-6.769-1.873-13.545-2.604-20.326
	c-0.07-0.645-0.141-1.29-0.209-1.936c-0.247-2.376-0.48-4.752-0.693-7.129c-0.027-0.302-0.052-0.603-0.078-0.905
	c-0.498-5.656-0.898-11.312-1.208-16.967l60.62,34.999l10.102,37.702c1.197,4.468,5.237,7.415,9.653,7.415
	c0.856,0,1.728-0.111,2.595-0.344c5.334-1.43,8.5-6.913,7.071-12.247l-10.102-37.703l35.018-60.652
	c4.638,9.172,9.034,18.511,13.152,28.031C332.557,222.817,330.87,247.313,330.87,271.976z M222.179,51.473
	c1.016-3.974,4.168-5.218,5.476-5.568c1.307-0.351,4.658-0.85,7.526,2.084c29.739,30.428,55.306,64.563,76.412,101.89
	l-38.302,66.341l-66.297-38.277C206.623,135.088,211.678,92.537,222.179,51.473z M226.499,313.948l77.673,44.845
	c1.575,0.909,3.294,1.342,4.991,1.342c3.456,0,6.817-1.794,8.669-5.002l15.858-27.467c4.356,42.679,13.758,84.265,28.103,124.274
	h-73.611C261.091,409.595,240.365,363.231,226.499,313.948z M383.085,451.938c-21.379-57.046-32.215-117.556-32.215-179.963
	c0-87.976,22.07-173.737,63.824-248.01l0,0c2.01-3.576,5.376-3.961,6.73-3.961c1.354,0,4.72,0.386,6.73,3.961
	c41.755,74.273,63.824,160.035,63.824,248.01c0,62.407-10.836,122.917-32.215,179.963L383.085,451.938L383.085,451.938z"/>
<g>
</g>
<g>
</g>
<g>
</g>
<g>
</g>
<g>
</g>
<g>
</g>
<g>
</g>
<g>
</g>
<g>
</g>
<g>
</g>
<g>
</g>
<g>
</g>
<g>
</g>
<g>
</g>
<g>
</g>
</svg>
